<mxfile host="app.diagrams.net" modified="2024-07-01T15:33:19.495Z" agent="Mozilla/5.0 (Windows NT 10.0; Win64; x64) AppleWebKit/537.36 (KHTML, like Gecko) Chrome/126.0.0.0 Safari/537.36" etag="g-eXh4bHOjE490kd_QT2" version="24.6.4" type="google">
  <diagram name="‫עמוד-1‬" id="TuJFT-kbt3ZMEhVEAf-x">
    <mxGraphModel dx="1434" dy="746" grid="1" gridSize="10" guides="1" tooltips="1" connect="1" arrows="1" fold="1" page="1" pageScale="1" pageWidth="827" pageHeight="1169" math="0" shadow="0">
      <root>
        <mxCell id="0" />
        <mxCell id="1" parent="0" />
        <mxCell id="1HA0gxkmwByOSAY0RlAE-9" value="" style="edgeStyle=orthogonalEdgeStyle;rounded=0;orthogonalLoop=1;jettySize=auto;html=1;" parent="1" target="1HA0gxkmwByOSAY0RlAE-8" edge="1">
          <mxGeometry relative="1" as="geometry">
            <mxPoint x="220" y="160" as="sourcePoint" />
            <Array as="points">
              <mxPoint x="220" y="260" />
              <mxPoint x="220" y="260" />
            </Array>
          </mxGeometry>
        </mxCell>
        <mxCell id="1HA0gxkmwByOSAY0RlAE-8" value="end" style="rounded=1;whiteSpace=wrap;html=1;" parent="1" vertex="1">
          <mxGeometry x="160" y="380" width="120" height="60" as="geometry" />
        </mxCell>
        <mxCell id="Mwx0I3CE5MZWvzFMTmRI-11" value="" style="edgeStyle=orthogonalEdgeStyle;rounded=0;orthogonalLoop=1;jettySize=auto;html=1;" edge="1" parent="1" source="1HA0gxkmwByOSAY0RlAE-10" target="Mwx0I3CE5MZWvzFMTmRI-10">
          <mxGeometry relative="1" as="geometry" />
        </mxCell>
        <mxCell id="1HA0gxkmwByOSAY0RlAE-10" value="start" style="rounded=1;whiteSpace=wrap;html=1;" parent="1" vertex="1">
          <mxGeometry x="160" y="100" width="120" height="60" as="geometry" />
        </mxCell>
        <mxCell id="1HA0gxkmwByOSAY0RlAE-11" value="1. do nothing" style="text;html=1;align=center;verticalAlign=middle;whiteSpace=wrap;rounded=0;" parent="1" vertex="1">
          <mxGeometry x="155" y="40" width="130" height="30" as="geometry" />
        </mxCell>
        <mxCell id="Mwx0I3CE5MZWvzFMTmRI-10" value="&quot;Alin&quot;" style="shape=document;whiteSpace=wrap;html=1;boundedLbl=1;" vertex="1" parent="1">
          <mxGeometry x="160" y="230" width="120" height="80" as="geometry" />
        </mxCell>
      </root>
    </mxGraphModel>
  </diagram>
</mxfile>
